# xmcd
#
# Track frame offsets: 
#        150
#        12551
#        26027
#        38882
#        51613
#        65814
#        79998
#        92057
#        106057
#        120456
#        137247
#        150536
#        163016
#        176927
#        191201
#        203673
#        218564
#        232803
#        246406
#        260344
#
# Disc length: 3663 seconds
#
# Revision: 1
# Processed by: cddbd v1.5.2PL0 Copyright (c) Steve Scherf et al.
# Submitted via: ExactAudioCopyFreeDBPlugin 1.0
#
DISCID=220e4d14
DTITLE=Various Artist - Blues Selection - Vol. 1
DYEAR=2006
DGENRE=Blues
TTITLE0=Big Bill Broonzy - House Rent Stomp (1927)
TTITLE1='Ma' Rainey And Her Georgia Band - Night Time Blues (1925)
TTITLE2=Mississippi John Hurt - Got The Blues (Can't Be Satisfied) (19
TTITLE2=28)
TTITLE3=Skip James - 22-20 Blues
TTITLE4=Bessie Smith - Easy Come, Easy Go Blues (1924)
TTITLE5=Oak Cliff T-Bone - Trinity River Blues (1929)
TTITLE6=Charlie Patton - Revenue Man Blues
TTITLE7=Henry Thomas - Red River Blues
TTITLE8=Robert 'Barbecue Bob' Hicks - Barbeque Blues
TTITLE9=Bessie Smith - Nashville Woman's Blues (1925)
TTITLE10=Tampa Red - You Can't Get That Stuff No More
TTITLE11=Lonnie Johnson - Mr. Johnson's Swing
TTITLE12=Leroy Carr - Midnight Hour Blues
TTITLE13=Oak Cliff T-Bone - Wichita Falls Blues (1929)
TTITLE14=Mississippi John Hurt - Candy Man Blues (1928)
TTITLE15=Memphis Minnie - Bumble Bee (1930)
TTITLE16=Blind Willie Johnson - Nobody's Fault But Mine
TTITLE17=Willie Newbern - Roll And Tumble Blues Hambone
TTITLE18=Johnnie Temple - Lead Pencil Blues
TTITLE19=The Mississippi Sheiks - Sitting On Top Of The World
EXTD=
EXTT0=
EXTT1=
EXTT2=
EXTT3=
EXTT4=
EXTT5=
EXTT6=
EXTT7=
EXTT8=
EXTT9=
EXTT10=
EXTT11=
EXTT12=
EXTT13=
EXTT14=
EXTT15=
EXTT16=
EXTT17=
EXTT18=
EXTT19=
PLAYORDER=
